<svg width="24" height="24" viewBox="0 0 24 24" fill="none" xmlns="http://www.w3.org/2000/svg">
<path d="M12 0C18.4104 0 24 5.292 24 11.4C24 17.4048 18.5364 22.1304 12 22.1304C10.602 22.1311 9.21269 21.91 7.884 21.4752C7.3272 22.0152 7.1364 22.1988 5.9544 23.3388C5.1024 23.982 4.3008 24.2004 3.5844 23.7948C2.862 23.3868 2.6448 22.5924 2.7924 21.546L3.2724 18.7632C1.188 16.8024 0 14.2104 0 11.4C0 5.292 5.5884 0 12 0ZM12 1.68C6.4968 1.68 1.68 6.24 1.68 11.4C1.68 13.854 2.7744 16.1136 4.704 17.796L4.728 17.8164L5.0844 18.126L5.004 18.594L4.8384 19.5588L4.794 19.8156L4.452 21.8052C4.43183 21.9391 4.41981 22.0742 4.416 22.2096V22.3236C4.416 22.3296 4.4148 22.332 4.4136 22.3332C4.422 22.3212 4.5852 22.2696 4.8648 22.0656L7.4688 19.5384L7.9656 19.7256C9.25611 20.2071 10.6226 20.453 12 20.4516C17.6592 20.4516 22.32 16.4196 22.32 11.4C22.32 6.2412 17.5032 1.68 12 1.68ZM6.2724 9.3756C6.51415 9.36677 6.7552 9.40676 6.98115 9.49318C7.2071 9.5796 7.41331 9.71068 7.58746 9.87858C7.76161 10.0465 7.90013 10.2478 7.99474 10.4704C8.08935 10.6931 8.13812 10.9325 8.13812 11.1744C8.13812 11.4163 8.08935 11.6557 7.99474 11.8784C7.90013 12.101 7.76161 12.3023 7.58746 12.4702C7.41331 12.6381 7.2071 12.7692 6.98115 12.8556C6.7552 12.942 6.51415 12.982 6.2724 12.9732C5.8067 12.9562 5.36575 12.7592 5.0423 12.4237C4.71885 12.0883 4.53812 11.6404 4.53812 11.1744C4.53812 10.7084 4.71885 10.2605 5.0423 9.92506C5.36575 9.58958 5.8067 9.39261 6.2724 9.3756ZM12.27 9.3756C12.5118 9.36677 12.7528 9.40676 12.9787 9.49318C13.2047 9.5796 13.4109 9.71068 13.5851 9.87858C13.7592 10.0465 13.8977 10.2478 13.9923 10.4704C14.087 10.6931 14.1357 10.9325 14.1357 11.1744C14.1357 11.4163 14.087 11.6557 13.9923 11.8784C13.8977 12.101 13.7592 12.3023 13.5851 12.4702C13.4109 12.6381 13.2047 12.7692 12.9787 12.8556C12.7528 12.942 12.5118 12.982 12.27 12.9732C11.8043 12.9562 11.3633 12.7592 11.0399 12.4237C10.7164 12.0883 10.5357 11.6404 10.5357 11.1744C10.5357 10.7084 10.7164 10.2605 11.0399 9.92506C11.3633 9.58958 11.8043 9.39261 12.27 9.3756ZM18.2664 9.3756C18.5082 9.36677 18.7492 9.40676 18.9751 9.49318C19.2011 9.5796 19.4073 9.71068 19.5815 9.87858C19.7556 10.0465 19.8941 10.2478 19.9887 10.4704C20.0834 10.6931 20.1321 10.9325 20.1321 11.1744C20.1321 11.4163 20.0834 11.6557 19.9887 11.8784C19.8941 12.101 19.7556 12.3023 19.5815 12.4702C19.4073 12.6381 19.2011 12.7692 18.9751 12.8556C18.7492 12.942 18.5082 12.982 18.2664 12.9732C17.8007 12.9562 17.3597 12.7592 17.0363 12.4237C16.7128 12.0883 16.5321 11.6404 16.5321 11.1744C16.5321 10.7084 16.7128 10.2605 17.0363 9.92506C17.3597 9.58958 17.8007 9.39261 18.2664 9.3756Z" fill="white"/>
</svg>
