<svg width="60" height="15" viewBox="0 0 60 15" fill="none" xmlns="http://www.w3.org/2000/svg">
<path d="M1 6.39999C0.447715 6.39999 0 6.84771 0 7.39999C0 7.95228 0.447715 8.39999 1 8.39999V6.39999ZM59.7071 8.1071C60.0976 7.71658 60.0976 7.08341 59.7071 6.69289L53.3431 0.328926C52.9526 -0.0615983 52.3195 -0.0615983 51.9289 0.328926C51.5384 0.71945 51.5384 1.35262 51.9289 1.74314L57.5858 7.39999L51.9289 13.0568C51.5384 13.4474 51.5384 14.0805 51.9289 14.4711C52.3195 14.8616 52.9526 14.8616 53.3431 14.4711L59.7071 8.1071ZM1 8.39999H59V6.39999H1V8.39999Z" fill="white"/>
</svg>
