<svg width="24" height="24" viewBox="0 0 24 24" fill="none" xmlns="http://www.w3.org/2000/svg">
<path d="M15.7008 18.7692V19.6154C15.7008 20.513 15.3442 21.3739 14.7095 22.0087C14.0748 22.6434 13.2139 23 12.3162 23C11.4186 23 10.5577 22.6434 9.92293 22.0087C9.28819 21.3739 8.9316 20.513 8.9316 19.6154V18.7692M21.3954 17.0468C20.0374 15.3846 19.0786 14.5385 19.0786 9.95601C19.0786 5.75962 16.9357 4.26457 15.172 3.53846C14.9377 3.44221 14.7172 3.22115 14.6458 2.98053C14.3364 1.9276 13.4691 1 12.3162 1C11.1633 1 10.2955 1.92813 9.98929 2.98159C9.9179 3.22486 9.69737 3.44221 9.46309 3.53846C7.69727 4.26563 5.55651 5.75538 5.55651 9.95601C5.55386 14.5385 4.59506 15.3846 3.23699 17.0468C2.67429 17.7353 3.16718 18.7692 4.15136 18.7692H20.4864C21.4653 18.7692 21.955 17.7322 21.3954 17.0468Z" stroke="white" stroke-width="2" stroke-linecap="round" stroke-linejoin="round"/>
</svg>
