<svg width="24" height="24" viewBox="0 0 24 24" fill="none" xmlns="http://www.w3.org/2000/svg">
<path d="M13.2937 2.19017e-06C13.6465 2.19017e-06 13.9621 0.219602 14.0809 0.548402L14.9281 2.8968C15.2317 2.9724 15.4921 3.048 15.7129 3.1272C15.9541 3.2136 16.2649 3.3444 16.6489 3.5232L18.6217 2.4792C18.7827 2.39389 18.9671 2.3631 19.1471 2.39144C19.3271 2.41978 19.4931 2.50574 19.6201 2.6364L21.3553 4.4304C21.5857 4.6692 21.6505 5.0184 21.5209 5.3232L20.5957 7.4916C20.7493 7.7736 20.8717 8.0148 20.9653 8.2164C21.0661 8.436 21.1909 8.7384 21.3397 9.1284L23.4961 10.0524C23.8201 10.1904 24.0205 10.5144 23.9989 10.8612L23.8405 13.3512C23.8296 13.513 23.7716 13.668 23.6734 13.7971C23.5753 13.9261 23.4415 14.0235 23.2885 14.0772L21.2461 14.8032C21.1873 15.0852 21.1261 15.3264 21.0613 15.5304C20.9568 15.8455 20.8374 16.1554 20.7037 16.4592L21.7297 18.7272C21.8021 18.8866 21.8216 19.0649 21.7853 19.2361C21.749 19.4074 21.6589 19.5625 21.5281 19.6788L19.5769 21.4212C19.4484 21.5355 19.288 21.6077 19.1173 21.6283C18.9466 21.6489 18.7737 21.6168 18.6217 21.5364L16.6105 20.4708C16.2958 20.6374 15.9712 20.7845 15.6385 20.9112L14.7601 21.24L13.9801 23.4C13.9223 23.5582 13.818 23.6952 13.681 23.7931C13.5439 23.8909 13.3805 23.9451 13.2121 23.9484L10.9321 24C10.7592 24.0045 10.5892 23.9554 10.4455 23.8593C10.3017 23.7633 10.1912 23.625 10.1293 23.4636L9.21007 21.0312C8.89645 20.924 8.58593 20.808 8.27887 20.6832C8.02773 20.5745 7.78039 20.4572 7.53727 20.3316L5.25727 21.306C5.10704 21.3701 4.94142 21.3891 4.78056 21.3608C4.61971 21.3325 4.47056 21.258 4.35127 21.1464L2.66407 19.5636C2.53846 19.4463 2.45291 19.2924 2.41953 19.1238C2.38616 18.9552 2.40663 18.7803 2.47807 18.624L3.45847 16.488C3.32809 16.235 3.2072 15.9772 3.09607 15.7152C2.96636 15.3945 2.8463 15.0699 2.73607 14.742L0.588075 14.088C0.413476 14.0352 0.261188 13.9263 0.154862 13.7781C0.0485369 13.6299 -0.00587577 13.4507 7.4752e-05 13.2684L0.0840748 10.9632C0.0900538 10.8128 0.137039 10.6669 0.219948 10.5413C0.302858 10.4156 0.418537 10.315 0.554475 10.2504L2.80807 9.168C2.91247 8.7852 3.00367 8.4876 3.08407 8.2704C3.19728 7.9803 3.323 7.69523 3.46087 7.416L2.48407 5.352C2.40995 5.19526 2.38743 5.01905 2.41978 4.84871C2.45212 4.67836 2.53765 4.52266 2.66407 4.404L4.34887 2.8128C4.46698 2.70141 4.61476 2.62652 4.77443 2.59714C4.9341 2.56776 5.09885 2.58514 5.24887 2.6472L7.52647 3.588C7.77847 3.42 8.00647 3.2844 8.21287 3.1752C8.45887 3.0444 8.78767 2.9076 9.20167 2.76L9.99367 0.550802C10.0522 0.389124 10.1593 0.24946 10.3001 0.150879C10.441 0.0522992 10.6089 -0.000391501 10.7809 2.19017e-06H13.2937ZM12.7057 1.6524H11.3701L10.6441 3.6852C10.6014 3.80373 10.5323 3.91102 10.4421 3.99895C10.3519 4.08688 10.2429 4.15317 10.1233 4.1928C9.60007 4.3668 9.22207 4.5168 9.00127 4.6332C8.76727 4.7568 8.46847 4.9452 8.11327 5.1972C7.99702 5.27879 7.86205 5.32971 7.72087 5.34523C7.57969 5.36075 7.43688 5.34038 7.30567 5.286L5.10967 4.38L4.25407 5.1888L5.14567 7.0728C5.19905 7.18489 5.22615 7.30769 5.2249 7.43183C5.22365 7.55598 5.1941 7.67821 5.13847 7.7892C4.89847 8.2704 4.73647 8.6256 4.65487 8.844C4.52974 9.20757 4.42162 9.57677 4.33087 9.9504C4.30072 10.0673 4.24536 10.1763 4.16866 10.2696C4.09196 10.3628 3.99578 10.4382 3.88687 10.4904L1.73887 11.5212L1.69567 12.6972L3.63967 13.2876C3.89767 13.3656 4.10167 13.5636 4.18687 13.818C4.37887 14.394 4.53247 14.8188 4.64287 15.0852C4.78916 15.4233 4.95093 15.7544 5.12767 16.0776C5.18747 16.1888 5.22065 16.3123 5.22461 16.4385C5.22856 16.5647 5.20319 16.6901 5.15047 16.8048L4.24927 18.7704L5.10247 19.572L7.24087 18.6576C7.35606 18.6084 7.48076 18.5854 7.60592 18.5904C7.73108 18.5954 7.85357 18.6282 7.96447 18.6864C8.40247 18.9168 8.72887 19.0764 8.93527 19.164C9.14527 19.2516 9.54727 19.398 10.1305 19.5972C10.2463 19.6367 10.3519 19.7013 10.4398 19.7864C10.5278 19.8714 10.5959 19.9748 10.6393 20.0892L11.4889 22.3344L12.6001 22.3104L13.3165 20.3256C13.3574 20.2123 13.4226 20.1094 13.5073 20.0238C13.5921 19.9382 13.6944 19.8721 13.8073 19.83L15.0517 19.3644C15.3661 19.248 15.7477 19.0644 16.1929 18.8124C16.3161 18.7432 16.4547 18.706 16.596 18.7043C16.7374 18.7027 16.8768 18.7365 17.0017 18.8028L18.8941 19.8048L19.9585 18.8556L19.0273 16.8C18.9794 16.6945 18.9546 16.58 18.9544 16.4641C18.9542 16.3483 18.9786 16.2337 19.0261 16.128C19.2445 15.6396 19.3921 15.2712 19.4665 15.036C19.5397 14.8056 19.6153 14.4732 19.6885 14.046C19.7136 13.9009 19.7771 13.7651 19.8722 13.6527C19.9673 13.5403 20.0907 13.4552 20.2297 13.4064L22.2073 12.7044L22.2937 11.3364L20.3497 10.5036C20.2462 10.4595 20.1527 10.3949 20.0749 10.3136C19.9972 10.2324 19.9367 10.1361 19.8973 10.0308C19.7586 9.64829 19.6074 9.27048 19.4437 8.898C19.2887 8.57368 19.1206 8.25581 18.9397 7.9452C18.877 7.83546 18.8406 7.7127 18.8333 7.58653C18.826 7.46037 18.8481 7.33423 18.8977 7.218L19.7677 5.178L18.8509 4.23L17.0653 5.1756C16.9487 5.23743 16.8193 5.27105 16.6873 5.27376C16.5554 5.27646 16.4247 5.24819 16.3057 5.1912C15.9267 5.00276 15.539 4.83217 15.1441 4.68C14.8073 4.5669 14.4638 4.47473 14.1157 4.404C13.9775 4.37471 13.8491 4.31078 13.7425 4.2182C13.6358 4.12563 13.5545 4.00746 13.5061 3.8748L12.7045 1.6512L12.7057 1.6524ZM12.0289 6.7692C14.9509 6.7692 17.3209 9.1128 17.3209 12.0024C17.3209 14.892 14.9509 17.2344 12.0289 17.2344C9.10567 17.2344 6.73687 14.892 6.73687 12.0024C6.73687 9.1128 9.10567 6.7704 12.0289 6.7704V6.7692ZM12.0289 8.4228C10.0285 8.4228 8.40727 10.0248 8.40727 12.0024C8.40727 13.98 10.0285 15.5832 12.0289 15.5832C14.0281 15.5832 15.6493 13.98 15.6493 12.0024C15.6493 10.0248 14.0293 8.4228 12.0289 8.4228Z" fill="white"/>
</svg>
